# Blender v2.79 (sub 0) OBJ File: 'triforce.blend'
# www.blender.org
mtllib triforce.mtl
o Plane
v -1.000000 1.000000 0.000001
v -2.000000 -1.000000 -0.000001
v 0.000000 -1.000000 -0.000001
v 1.000000 1.000000 0.000001
v 0.000000 -1.000000 -0.000001
v 2.000000 -1.000000 -0.000001
v 0.000000 3.000000 0.000001
v -1.000000 1.000000 -0.000001
v 1.000000 1.000000 -0.000001
v 1.000000 1.000000 -0.000001
v -1.000000 1.000000 -0.000001
v -1.000000 1.000000 -0.250001
v 1.000000 1.000000 -0.250001
v 0.000000 3.000000 0.000001
v 1.000000 1.000000 -0.000001
v 1.000000 1.000000 -0.250001
v 0.000000 3.000000 -0.249999
v -1.000000 1.000000 -0.000001
v 0.000000 3.000000 0.000001
v 0.000000 3.000000 -0.249999
v -1.000000 1.000000 -0.250001
v 2.000000 -1.000000 -0.000001
v 0.000000 -1.000000 -0.000001
v 0.000000 -1.000000 -0.250001
v 2.000000 -1.000000 -0.250001
v 1.000000 1.000000 0.000001
v 2.000000 -1.000000 -0.000001
v 2.000000 -1.000000 -0.250001
v 1.000000 1.000000 -0.249999
v 0.000000 -1.000000 -0.000001
v 1.000000 1.000000 0.000001
v 1.000000 1.000000 -0.249999
v 0.000000 -1.000000 -0.250001
v -2.000000 -1.000000 -0.000001
v -1.000000 1.000000 0.000001
v -1.000000 1.000000 -0.249999
v -2.000000 -1.000000 -0.250001
v -1.000000 1.000000 0.000001
v 0.000000 -1.000000 -0.000001
v 0.000000 -1.000000 -0.250001
v -1.000000 1.000000 -0.249999
v 0.000000 -1.000000 -0.000001
v -2.000000 -1.000000 -0.000001
v -2.000000 -1.000000 -0.250001
v 0.000000 -1.000000 -0.250001
v 0.000000 3.000000 -0.249999
v 1.000000 1.000000 -0.250001
v -1.000000 1.000000 -0.250001
v 1.000000 1.000000 -0.249999
v 2.000000 -1.000000 -0.250001
v 0.000000 -1.000000 -0.250001
v -1.000000 1.000000 -0.249999
v 0.000000 -1.000000 -0.250001
v -2.000000 -1.000000 -0.250001
vt 0.166667 1.000000
vt 0.000000 0.666667
vt 0.333333 0.666667
vt 0.500000 0.333333
vt 0.333333 0.000000
vt 0.666667 0.000000
vt 0.500000 1.000000
vt 0.333333 0.666667
vt 0.666667 0.666667
vt 0.999444 0.333333
vt 0.666667 0.333333
vt 0.666953 0.289561
vt 0.999730 0.289561
vt 0.860962 0.701911
vt 0.860962 0.333333
vt 0.909352 0.334279
vt 0.909352 0.702856
vt 0.715302 0.334284
vt 0.715302 0.704725
vt 0.666667 0.703774
vt 0.666667 0.333333
vt 0.999444 0.043772
vt 0.666667 0.043772
vt 0.666953 0.000000
vt 0.999730 0.000000
vt 0.812572 0.701911
vt 0.812572 0.333333
vt 0.860962 0.334279
vt 0.860962 0.702856
vt 0.763937 0.334284
vt 0.763937 0.704725
vt 0.715302 0.703774
vt 0.715302 0.333333
vt 0.812572 0.334284
vt 0.812572 0.704725
vt 0.763937 0.703774
vt 0.763937 0.333333
vt 0.909352 0.701911
vt 0.909352 0.333333
vt 0.957743 0.334279
vt 0.957743 0.702856
vt 0.999444 0.748497
vt 0.666667 0.748497
vt 0.666953 0.704725
vt 0.999730 0.704725
vt 0.166667 0.333333
vt 0.333333 0.666667
vt 0.000000 0.666667
vt 0.500000 0.333333
vt 0.666667 0.666667
vt 0.333333 0.666667
vt 0.166667 0.000000
vt 0.333333 0.333333
vt 0.000000 0.333333
vn 0.0000 -0.0000 1.0000
vn 0.0000 -1.0000 0.0000
vn 0.8944 0.4472 0.0000
vn -0.8944 0.4472 0.0000
vn 0.0000 0.0000 -1.0000
usemtl _trif
s 1
f 1/1/1 2/2/1 3/3/1
f 4/4/1 5/5/1 6/6/1
f 7/7/1 8/8/1 9/9/1
f 10/10/2 11/11/2 12/12/2
f 10/10/2 12/12/2 13/13/2
f 14/14/3 15/15/3 16/16/3
f 14/14/3 16/16/3 17/17/3
f 18/18/4 19/19/4 20/20/4
f 18/18/4 20/20/4 21/21/4
f 22/22/2 23/23/2 24/24/2
f 22/22/2 24/24/2 25/25/2
f 26/26/3 27/27/3 28/28/3
f 26/26/3 28/28/3 29/29/3
f 30/30/4 31/31/4 32/32/4
f 30/30/4 32/32/4 33/33/4
f 34/34/4 35/35/4 36/36/4
f 34/34/4 36/36/4 37/37/4
f 38/38/3 39/39/3 40/40/3
f 38/38/3 40/40/3 41/41/3
f 42/42/2 43/43/2 44/44/2
f 42/42/2 44/44/2 45/45/2
f 46/46/5 47/47/5 48/48/5
f 49/49/5 50/50/5 51/51/5
f 52/52/5 53/53/5 54/54/5
